<mxfile host="Electron" modified="2024-02-04T14:57:38.656Z" agent="Mozilla/5.0 (Windows NT 10.0; Win64; x64) AppleWebKit/537.36 (KHTML, like Gecko) draw.io/23.0.2 Chrome/120.0.6099.109 Electron/28.1.0 Safari/537.36" etag="Cjvk_2ps-Me7CwHPXa09" version="23.0.2" type="device">
  <diagram name="Page-1" id="5pk8E9XVwLfFnPYnT0a1">
    <mxGraphModel dx="794" dy="511" grid="1" gridSize="10" guides="1" tooltips="1" connect="1" arrows="1" fold="1" page="1" pageScale="1" pageWidth="827" pageHeight="1169" math="0" shadow="0">
      <root>
        <mxCell id="0" />
        <mxCell id="1" parent="0" />
        <UserObject label="User" type="externalEntity" source="" flow="" placeholders="1" id="zk21_JsynzPiw_pFRbDI-1">
          <mxCell style="shape=rectangle;whiteSpace=wrap;html=1;fillColor=#ffffff;strokeColor=#000000;align=center;verticalAlign=middle;fontColor=#232F3E;" vertex="1" parent="1">
            <mxGeometry x="440" width="55" height="35" as="geometry" />
          </mxCell>
        </UserObject>
        <UserObject label="List Collections &amp; Objects" type="process" source="1" flow="" placeholders="1" id="zk21_JsynzPiw_pFRbDI-2">
          <mxCell style="shape=ellipse;perimeter=ellipsePerimeter;whiteSpace=wrap;html=1;fillColor=#ffffff;strokeColor=#000000;align=center;verticalAlign=middle;fontColor=#232F3E;" vertex="1" parent="1">
            <mxGeometry x="195" y="135" width="165" height="35" as="geometry" />
          </mxCell>
        </UserObject>
        <UserObject label="Library Unit Details" type="dataStore" source="2" flow="Collection &amp; Object Info" placeholders="1" id="zk21_JsynzPiw_pFRbDI-3">
          <mxCell style="html=1;dashed=0;whiteSpace=wrap;shape=partialRectangle;right=0;left=0;" vertex="1" parent="1">
            <mxGeometry x="215" y="270" width="125" height="35" as="geometry" />
          </mxCell>
        </UserObject>
        <UserObject label="DAMS Repositories" type="externalEntity" source="" flow="" placeholders="1" id="zk21_JsynzPiw_pFRbDI-4">
          <mxCell style="shape=rectangle;whiteSpace=wrap;html=1;fillColor=#ffffff;strokeColor=#000000;align=center;verticalAlign=middle;fontColor=#232F3E;" vertex="1" parent="1">
            <mxGeometry width="135" height="35" as="geometry" />
          </mxCell>
        </UserObject>
        <UserObject label="Contact Repositories" type="process" source="4" flow="Communication Info" placeholders="1" id="zk21_JsynzPiw_pFRbDI-5">
          <mxCell style="shape=ellipse;perimeter=ellipsePerimeter;whiteSpace=wrap;html=1;fillColor=#ffffff;strokeColor=#000000;align=center;verticalAlign=middle;fontColor=#232F3E;" vertex="1" parent="1">
            <mxGeometry y="135" width="135" height="35" as="geometry" />
          </mxCell>
        </UserObject>
        <UserObject label="Formal Collection Listing" type="process" source="1" flow="Relationship Info" placeholders="1" id="zk21_JsynzPiw_pFRbDI-6">
          <mxCell style="shape=ellipse;perimeter=ellipsePerimeter;whiteSpace=wrap;html=1;fillColor=#ffffff;strokeColor=#000000;align=center;verticalAlign=middle;fontColor=#232F3E;" vertex="1" parent="1">
            <mxGeometry x="390" y="135" width="155" height="35" as="geometry" />
          </mxCell>
        </UserObject>
        <UserObject label="Browse Collections" type="process" source="1" flow="6,8" placeholders="1" id="zk21_JsynzPiw_pFRbDI-7">
          <mxCell style="shape=ellipse;perimeter=ellipsePerimeter;whiteSpace=wrap;html=1;fillColor=#ffffff;strokeColor=#000000;align=center;verticalAlign=middle;fontColor=#232F3E;" vertex="1" parent="1">
            <mxGeometry x="575" y="135" width="135" height="35" as="geometry" />
          </mxCell>
        </UserObject>
        <UserObject label="Specified Collection Limit" type="process" source="7" flow="Limited Search Results" placeholders="1" id="zk21_JsynzPiw_pFRbDI-8">
          <mxCell style="shape=ellipse;perimeter=ellipsePerimeter;whiteSpace=wrap;html=1;fillColor=#ffffff;strokeColor=#000000;align=center;verticalAlign=middle;fontColor=#232F3E;" vertex="1" parent="1">
            <mxGeometry x="560" y="270" width="165" height="35" as="geometry" />
          </mxCell>
        </UserObject>
        <UserObject label="DAmS Manager" type="externalEntity" source="" flow="" placeholders="1" id="zk21_JsynzPiw_pFRbDI-9">
          <mxCell style="shape=rectangle;whiteSpace=wrap;html=1;fillColor=#ffffff;strokeColor=#000000;align=center;verticalAlign=middle;fontColor=#232F3E;" vertex="1" parent="1">
            <mxGeometry x="785" width="115" height="35" as="geometry" />
          </mxCell>
        </UserObject>
        <UserObject label="Monitor Events" type="process" source="9" flow="Event Outcome" placeholders="1" id="zk21_JsynzPiw_pFRbDI-10">
          <mxCell style="shape=ellipse;perimeter=ellipsePerimeter;whiteSpace=wrap;html=1;fillColor=#ffffff;strokeColor=#000000;align=center;verticalAlign=middle;fontColor=#232F3E;" vertex="1" parent="1">
            <mxGeometry x="790" y="135" width="105" height="35" as="geometry" />
          </mxCell>
        </UserObject>
        <mxCell id="zk21_JsynzPiw_pFRbDI-11" value="" style="endArrow=blockThin;endFill=1;fontSize=11;orthogonal=1;noEdgeStyle=1;" edge="1" parent="1" source="zk21_JsynzPiw_pFRbDI-1" target="zk21_JsynzPiw_pFRbDI-2">
          <mxGeometry relative="1" as="geometry">
            <Array as="points">
              <mxPoint x="452.5" y="47" />
              <mxPoint x="277.5" y="123" />
            </Array>
          </mxGeometry>
        </mxCell>
        <mxCell id="zk21_JsynzPiw_pFRbDI-12" value="Collection &amp; Object Info" style="endArrow=blockThin;endFill=1;fontSize=11;orthogonal=1;noEdgeStyle=1;" edge="1" parent="1" source="zk21_JsynzPiw_pFRbDI-2" target="zk21_JsynzPiw_pFRbDI-3">
          <mxGeometry relative="1" as="geometry">
            <Array as="points">
              <mxPoint x="277.5" y="182" />
              <mxPoint x="277.5" y="258" />
            </Array>
          </mxGeometry>
        </mxCell>
        <mxCell id="zk21_JsynzPiw_pFRbDI-13" value="Communication Info" style="endArrow=blockThin;endFill=1;fontSize=11;orthogonal=1;noEdgeStyle=1;" edge="1" parent="1" source="zk21_JsynzPiw_pFRbDI-4" target="zk21_JsynzPiw_pFRbDI-5">
          <mxGeometry relative="1" as="geometry">
            <Array as="points">
              <mxPoint x="67.5" y="47" />
              <mxPoint x="67.5" y="123" />
            </Array>
          </mxGeometry>
        </mxCell>
        <mxCell id="zk21_JsynzPiw_pFRbDI-14" value="Relationship Info" style="endArrow=blockThin;endFill=1;fontSize=11;orthogonal=1;noEdgeStyle=1;" edge="1" parent="1" source="zk21_JsynzPiw_pFRbDI-1" target="zk21_JsynzPiw_pFRbDI-6">
          <mxGeometry relative="1" as="geometry">
            <Array as="points">
              <mxPoint x="467.5" y="49" />
              <mxPoint x="467.5" y="123" />
            </Array>
          </mxGeometry>
        </mxCell>
        <mxCell id="zk21_JsynzPiw_pFRbDI-15" value="6,8" style="endArrow=blockThin;endFill=1;fontSize=11;orthogonal=1;noEdgeStyle=1;" edge="1" parent="1" source="zk21_JsynzPiw_pFRbDI-1" target="zk21_JsynzPiw_pFRbDI-7">
          <mxGeometry relative="1" as="geometry">
            <Array as="points">
              <mxPoint x="482.5" y="47" />
              <mxPoint x="642.5" y="123" />
            </Array>
          </mxGeometry>
        </mxCell>
        <mxCell id="zk21_JsynzPiw_pFRbDI-16" value="Limited Search Results" style="endArrow=blockThin;endFill=1;fontSize=11;orthogonal=1;noEdgeStyle=1;" edge="1" parent="1" source="zk21_JsynzPiw_pFRbDI-7" target="zk21_JsynzPiw_pFRbDI-8">
          <mxGeometry relative="1" as="geometry">
            <Array as="points">
              <mxPoint x="642.5" y="182" />
              <mxPoint x="642.5" y="258" />
            </Array>
          </mxGeometry>
        </mxCell>
        <mxCell id="zk21_JsynzPiw_pFRbDI-17" value="Event Outcome" style="endArrow=blockThin;endFill=1;fontSize=11;orthogonal=1;noEdgeStyle=1;" edge="1" parent="1" source="zk21_JsynzPiw_pFRbDI-9" target="zk21_JsynzPiw_pFRbDI-10">
          <mxGeometry relative="1" as="geometry">
            <Array as="points">
              <mxPoint x="842.5" y="47" />
              <mxPoint x="842.5" y="123" />
            </Array>
          </mxGeometry>
        </mxCell>
      </root>
    </mxGraphModel>
  </diagram>
</mxfile>
